#!OML:ASF X:\für Bonn\!DataBase\2005_08_12_Daniel\c3d\Daniel.ASF
:FULLY-SPECIFIED
:DEGREES
334
root 18.6583 1.31742 0.446988 -1715.3 258.584 157.484
lowerback 31.9084 -2.15606 -0.226501
upperback 5.57415 -4.06514 -5.00977
thorax -10.7314 -2.21251 -3.62126
lowerneck -10.8835 3.09292 -2.57132
upperneck 2.58544 4.43745 -1.08927
head 2.68678 2.08938 0.342051
rclavicle -1.07344e-013 8.17253e-014
rhumerus -363.153 16.0207 312.081
rradius 116.983
rwrist -8.81543
rhand -43.8187 755.553
rfingers 7.12502
rthumb -16.6466 726.247
lclavicle -1.07344e-013 8.17253e-014
lhumerus -522.658 171.579 -508.341
lradius 122.544
lwrist 29.2219
lhand -36.8938 -739.315
lfingers 7.12502
lthumb -9.97219 10.4286
rfemur -552.04 -177.141 552.235
rtibia 63.8991
rfoot 11.1235 -5.8606
rtoes 25.204
lfemur -13.1049 739.929 -25.7461
ltibia 90.0358
lfoot 97.5731 537.062
ltoes 12.711
335
root 18.6909 1.29592 0.448637 -1715.39 258.557 157.923
lowerback 31.5355 -2.14133 -0.271991
upperback 5.49915 -4.04681 -5.03387
thorax -10.6601 -2.1994 -3.64084
lowerneck -10.9863 3.09468 -2.5238
upperneck 2.724 4.43928 -1.03992
head 2.75335 2.09103 0.354076
rclavicle 7.03698e-014 -2.18626e-013
rhumerus -363.67 16.6982 311.624
rradius 116.681
rwrist -8.58105
rhand -43.5631 754.964
rfingers 7.12502
rthumb -16.4006 725.637
lclavicle 7.03698e-014 -2.18626e-013
lhumerus -523.574 172.445 -508.435
lradius 122.484
lwrist 29.0119
lhand -37.0363 -739.398
lfingers 7.12502
lthumb -10.1096 10.3391
rfemur -550.735 -177.604 552.32
rtibia 62.7537
rfoot 11.0257 -5.82144
rtoes 25.7313
lfemur -13.1374 739.72 -25.8175
ltibia 89.7253
lfoot 99.3286 538.467
ltoes 12.6689
336
root 18.7438 1.27526 0.449862 -1715.47 258.541 158.356
lowerback 31.1431 -2.12358 -0.309387
upperback 5.42166 -4.01802 -5.03963
thorax -10.58 -2.18112 -3.64976
lowerneck -11.0016 3.08686 -2.50299
upperneck 2.81562 4.42936 -1.01921
head 2.78768 2.08653 0.358285
rclavicle 9.54166e-015 1.14866e-013
rhumerus -364.262 17.4588 311.127
rradius 116.345
rwrist -8.31703
rhand -43.3971 754.448
rfingers 7.12502
rthumb -16.2407 725.108
lclavicle 9.54166e-015 1.14866e-013
lhumerus -524.513 173.375 -508.448
lradius 122.416
lwrist 28.8254
lhand -37.1154 -739.558
lfingers 7.12502
lthumb -10.1859 10.1755
rfemur -549.189 -178.13 552.432
rtibia 61.3119
rfoot 10.8676 -6.00283
rtoes 26.8066
lfemur -13.3861 739.558 -25.8249
ltibia 89.6984
lfoot 101.301 540.56
ltoes 13.5091
337
root 18.8051 1.2566 0.450698 -1715.6 258.528 158.755
lowerback 30.8322 -2.11001 -0.326314
upperback 5.37814 -3.99575 -5.07424
thorax -10.4995 -2.16849 -3.6956
lowerneck -11.0552 3.07927 -2.45616
upperneck 2.91455 4.41597 -0.967836
head 2.83169 2.08177 0.368645
rclavicle -8.78628e-014 2.29472e-014
rhumerus -364.897 18.1815 310.531
rradius 115.929
rwrist -8.1002
rhand -43.2 754
rfingers 7.12502
rthumb -16.051 724.644
lclavicle -8.78628e-014 2.29472e-014
lhumerus -525.385 174.339 -508.42
lradius 122.277
lwrist 28.6265
lhand -37.0643 -739.725
lfingers 7.12502
lthumb -10.1367 10.011
rfemur -547.327 -178.705 552.552
rtibia 59.6095
rfoot 10.5459 -6.26395
rtoes 28.2547
lfemur -13.5981 739.432 -25.7567
ltibia 89.8492
lfoot 103.301 542.97
ltoes 14.5964
338
root 18.8743 1.24157 0.450882 -1715.69 258.499 159.033
lowerback 30.4431 -2.10362 -0.346808
upperback 5.69533 -3.97819 -4.95256
thorax -10.6586 -2.19829 -3.87484
lowerneck -11.0946 3.06903 -2.41392
upperneck 3.03163 4.40105 -0.940598
head 2.87982 2.07513 0.371864
rclavicle -3.45885e-014 4.58571e-014
rhumerus -365.655 18.9787 309.912
rradius 115.529
rwrist -7.82279
rhand -43.0867 753.582
rfingers 7.12502
rthumb -15.9418 724.218
lclavicle -3.45885e-014 4.58571e-014
lhumerus -526.314 175.368 -508.335
lradius 122.129
lwrist 28.4544
lhand -36.9946 -739.791
lfingers 7.12502
lthumb -10.0694 9.94772
rfemur -545.223 -179.312 552.658
rtibia 57.6821
rfoot 10.0984 -6.55325
rtoes 29.7477
lfemur -13.8123 739.35 -25.6462
ltibia 90.1763
lfoot 105.101 545.776
ltoes 14.9776
339
root 18.9394 1.22875 0.451111 -1715.84 258.493 159.35
lowerback 30.2156 -2.09443 -0.357238
upperback 5.66035 -3.96322 -4.98604
thorax -10.5875 -2.18968 -3.91753
lowerneck -11.1419 3.05721 -2.36626
upperneck 3.14824 4.38186 -0.884022
head 2.92884 2.06784 0.38357
rclavicle -4.01545e-014 7.08978e-014
rhumerus -366.532 19.767 309.201
rradius 115.097
rwrist -7.53299
rhand -43.0178 753.294
rfingers 7.12502
rthumb -15.8755 723.925
lclavicle -4.01545e-014 7.08978e-014
lhumerus -527.252 176.443 -508.214
lradius 121.935
lwrist 28.2842
lhand -36.8641 -739.884
lfingers 7.12502
lthumb -9.94351 9.8612
rfemur -543.089 -179.964 552.814
rtibia 55.6712
rfoot 9.66177 -6.8902
rtoes 30.9653
lfemur -13.9876 739.282 -25.4834
ltibia 90.5087
lfoot 106.794 548.735
ltoes 15.1214
340
root 18.9944 1.21781 0.450881 -1716 258.481 159.68
lowerback 30.0217 -2.07638 -0.401255
upperback 5.60253 -3.94497 -4.99226
thorax -10.5548 -2.17725 -3.90988
lowerneck -11.0825 3.04667 -2.38875
upperneck 3.21129 4.36905 -0.823426
head 2.93743 2.06407 0.406034
rclavicle 7.87187e-014 -1.1017e-013
rhumerus -367.512 20.6061 308.499
rradius 114.676
rwrist -7.27469
rhand -42.8981 752.962
rfingers 7.12502
rthumb -15.7603 723.583
lclavicle 7.87187e-014 -1.1017e-013
lhumerus -528.301 177.61 -507.994
lradius 121.715
lwrist 28.0877
lhand -36.7151 -739.904
lfingers 7.12502
lthumb -9.7998 9.8483
rfemur -541.003 -180.679 553.013
rtibia 53.6938
rfoot 9.24535 -7.31142
rtoes 31.9293
lfemur -14.0526 739.211 -25.2855
ltibia 90.7452
lfoot 108.51 551.629
ltoes 15.5674
